<?xml version="1.0" standalone="no"?>
<!DOCTYPE svg PUBLIC "-//W3C//DTD SVG 20010904//EN"
 "http://www.w3.org/TR/2001/REC-SVG-20010904/DTD/svg10.dtd">
<svg version="1.0" xmlns="http://www.w3.org/2000/svg"
 width="155.000000pt" height="104.000000pt" viewBox="0 0 155.000000 104.000000"
 preserveAspectRatio="xMidYMid meet">
<metadata>
Created by potrace 1.10, written by Peter Selinger 2001-2011
</metadata>
<g transform="translate(0.000000,104.000000) scale(0.100000,-0.100000)"
fill="#000000" stroke="none">
<path d="M162 930 c-18 -11 -41 -34 -52 -52 -19 -31 -20 -47 -18 -280 4 -362
-29 -339 477 -336 l365 3 1 43 1 42 -366 0 c-271 0 -369 3 -378 12 -17 17 -17
469 0 486 14 14 1124 18 1146 4 9 -7 12 -65 10 -258 l-3 -249 -117 -3 c-87 -2
-119 -6 -128 -17 -7 -8 -15 -15 -19 -15 -3 0 -5 108 -3 240 l2 240 -45 0 -45
0 0 -325 c0 -316 1 -325 20 -335 32 -17 52 -5 95 60 l40 60 93 0 c108 0 154
16 183 64 17 28 19 54 19 286 0 238 -1 257 -20 288 -38 63 -31 62 -657 62
-549 0 -569 -1 -601 -20z m944 -643 c8 3 14 1 14 -5 0 -11 -47 -71 -65 -84
-12 -9 -22 43 -16 89 l3 33 25 -20 c13 -10 31 -16 39 -13z"/>
<path d="M845 615 l0 -176 43 3 42 3 3 173 2 172 -45 0 -45 0 0 -175z"/>
<path d="M327 712 c-63 -63 -70 -82 -32 -82 24 0 25 -2 25 -70 0 -62 3 -74 25
-95 19 -20 34 -25 75 -25 l50 0 0 41 c0 36 -3 41 -19 36 -31 -8 -43 8 -47 62
l-3 51 34 0 c33 0 35 2 35 35 0 36 0 36 -37 29 l-36 -7 6 42 c7 56 -7 53 -76
-17z m53 -69 c-32 -23 -56 7 -28 35 9 9 16 8 30 -5 17 -16 17 -17 -2 -30z"/>
<path d="M554 681 c-78 -48 -68 -188 16 -233 42 -22 75 -23 112 -4 16 9 30 11
33 5 4 -5 22 -9 41 -9 l34 0 0 130 0 130 -34 0 c-19 0 -36 -5 -38 -11 -3 -9
-9 -9 -25 0 -33 17 -104 13 -139 -8z m128 -68 c22 -20 24 -66 2 -87 -20 -20
-68 -21 -84 -1 -29 35 -1 105 43 105 11 0 29 -7 39 -17z"/>
<path d="M1126 635 l-38 -65 38 -64 c37 -64 38 -64 86 -68 26 -1 48 1 48 5 0
5 -18 35 -41 67 l-41 58 41 61 c23 33 41 62 41 65 0 4 -21 6 -47 6 l-48 0 -39
-65z"/>
</g>
</svg>
